<svg width="13" height="12" viewBox="0 0 13 12" fill="none" xmlns="http://www.w3.org/2000/svg">
<path fill-rule="evenodd" clip-rule="evenodd" d="M6.75781 2C4.54867 2 2.75781 3.79086 2.75781 6C2.75781 8.20914 4.54867 10 6.75781 10C8.96695 10 10.7578 8.20914 10.7578 6C10.7578 3.79086 8.96695 2 6.75781 2ZM1.75781 6C1.75781 3.23858 3.99639 1 6.75781 1C9.51924 1 11.7578 3.23858 11.7578 6C11.7578 8.76142 9.51924 11 6.75781 11C3.99639 11 1.75781 8.76142 1.75781 6Z" fill="#D0F500"/>
<path fill-rule="evenodd" clip-rule="evenodd" d="M6.75781 3.5C7.03395 3.5 7.25781 3.72386 7.25781 4V6C7.25781 6.27614 7.03395 6.5 6.75781 6.5C6.48167 6.5 6.25781 6.27614 6.25781 6V4C6.25781 3.72386 6.48167 3.5 6.75781 3.5ZM6.25781 8C6.25781 7.72386 6.48167 7.5 6.75781 7.5H6.76281C7.03895 7.5 7.26281 7.72386 7.26281 8C7.26281 8.27614 7.03895 8.5 6.76281 8.5H6.75781C6.48167 8.5 6.25781 8.27614 6.25781 8Z" fill="#D0F500"/>
</svg>
