<svg width="38" height="38" viewBox="0 0 38 38" fill="none" xmlns="http://www.w3.org/2000/svg">
<path d="M19 3.56299C15.9468 3.56299 12.9621 4.46838 10.4234 6.16468C7.88471 7.86097 5.90604 10.272 4.73762 13.0928C3.56919 15.9136 3.26347 19.0176 3.85913 22.0122C4.45479 25.0068 5.92507 27.7575 8.08405 29.9164C10.243 32.0754 12.9937 33.5457 15.9883 34.1414C18.9829 34.737 22.0868 34.4313 24.9077 33.2629C27.7285 32.0944 30.1395 30.1158 31.8358 27.5771C33.5321 25.0384 34.4375 22.0537 34.4375 19.0005C34.4332 14.9075 32.8054 10.9835 29.9112 8.0893C27.017 5.19514 23.093 3.56731 19 3.56299ZM25.7777 16.2781L17.4652 24.5906C17.3549 24.7011 17.2239 24.7886 17.0797 24.8484C16.9356 24.9082 16.7811 24.9389 16.625 24.9389C16.469 24.9389 16.3144 24.9082 16.1703 24.8484C16.0261 24.7886 15.8951 24.7011 15.7849 24.5906L12.2224 21.0281C11.9995 20.8053 11.8743 20.5031 11.8743 20.188C11.8743 19.8729 11.9995 19.5707 12.2224 19.3478C12.4452 19.125 12.7474 18.9998 13.0625 18.9998C13.3776 18.9998 13.6798 19.125 13.9027 19.3478L16.625 22.0717L24.0974 14.5978C24.2077 14.4875 24.3387 14.4 24.4828 14.3403C24.627 14.2806 24.7815 14.2498 24.9375 14.2498C25.0935 14.2498 25.248 14.2806 25.3922 14.3403C25.5364 14.4 25.6673 14.4875 25.7777 14.5978C25.888 14.7082 25.9755 14.8391 26.0352 14.9833C26.0949 15.1275 26.1257 15.282 26.1257 15.438C26.1257 15.594 26.0949 15.7485 26.0352 15.8927C25.9755 16.0368 25.888 16.1678 25.7777 16.2781Z" fill="#EDEDED"/>
</svg>
