<svg width="1420" height="464" viewBox="0 0 1420 464" fill="none" xmlns="http://www.w3.org/2000/svg">
<g filter="url(#filter0_dd_1_1081)">
<g clip-path="url(#clip0_1_1081)">
<path d="M70 90C70 76.7452 80.7452 66 94 66H1326C1339.25 66 1350 76.7452 1350 90V366C1350 379.255 1339.25 390 1326 390H94C80.7452 390 70 379.255 70 366V90Z" fill="#232323"/>
<path d="M710 117C992.218 117 1221 257.135 1221 430C1221 602.865 992.218 743 710 743C427.782 743 199 602.865 199 430C199 257.135 427.782 117 710 117ZM710 118C569.045 118 441.482 152.998 349.19 209.528C256.882 266.069 200 344.047 200 430C200 515.953 256.882 593.931 349.19 650.472C441.482 707.002 569.045 742 710 742C850.955 742 978.518 707.002 1070.81 650.472C1163.12 593.931 1220 515.953 1220 430C1220 344.047 1163.12 266.069 1070.81 209.528C978.518 152.998 850.955 118 710 118ZM709.999 183.596C932.17 183.596 1112.28 293.915 1112.28 430L1112.27 431.594C1110.87 566.946 931.302 676.404 709.999 676.404L707.397 676.399C487.29 675.546 309.125 566.415 307.73 431.594L307.723 430C307.723 293.915 487.828 183.596 709.999 183.596ZM709.999 184.596C599.067 184.596 498.686 212.139 426.069 256.618C353.436 301.108 308.723 362.436 308.723 430C308.723 497.564 353.436 558.891 426.069 603.381C498.686 647.86 599.067 675.404 709.999 675.404C820.931 675.404 921.313 647.86 993.93 603.381C1066.56 558.891 1111.28 497.563 1111.28 430C1111.28 362.436 1066.56 301.108 993.93 256.618C921.313 212.139 820.931 184.596 709.999 184.596ZM709.998 250.191C872.123 250.191 1003.55 330.695 1003.55 430L1003.55 431.163C1002.52 529.933 871.49 609.809 709.998 609.809L706.204 609.794C546.459 608.554 417.465 529.159 416.451 431.163L416.445 430C416.445 330.695 547.873 250.192 709.998 250.191ZM709.998 251.191C629.09 251.191 555.888 271.281 502.947 303.709C449.989 336.147 417.445 380.826 417.445 430C417.445 479.174 449.989 523.853 502.947 556.291C555.888 588.719 629.09 608.809 709.998 608.809C790.907 608.809 864.109 588.719 917.05 556.291C970.008 523.853 1002.55 479.174 1002.55 430C1002.55 380.826 970.008 336.147 917.05 303.709C864.109 271.281 790.907 251.191 709.998 251.191ZM712.812 296.819C831.609 297.741 927.448 357.015 927.448 430C927.448 503.56 830.094 563.191 710.002 563.191L707.191 563.181C588.394 562.259 492.555 502.985 492.555 430C492.555 356.44 589.909 296.809 710.002 296.809L712.812 296.819ZM710.002 297.809C650.109 297.809 595.934 312.68 556.766 336.672C517.58 360.674 493.555 393.699 493.555 430C493.555 466.301 517.58 499.326 556.766 523.328C595.934 547.32 650.109 562.191 710.002 562.191C769.894 562.191 824.069 547.32 863.237 523.328C902.423 499.326 926.448 466.301 926.448 430C926.448 393.699 902.423 360.674 863.237 336.672C824.069 312.68 769.894 297.809 710.002 297.809ZM708.913 355.414C775.564 355.414 829.596 388.51 829.597 429.335L829.587 430.291C828.752 470.676 775.044 503.257 708.913 503.257L707.354 503.251C641.421 502.739 588.23 469.842 588.23 429.335C588.231 388.51 642.262 355.414 708.913 355.414ZM708.913 356.414C675.741 356.414 645.757 364.652 624.1 377.918C602.425 391.194 589.231 409.401 589.23 429.335C589.23 449.269 602.425 467.477 624.1 480.753C645.757 494.019 675.741 502.257 708.913 502.257C742.085 502.257 772.069 494.019 793.727 480.753C815.401 467.477 828.597 449.269 828.597 429.335C828.596 409.401 815.401 391.194 793.727 377.918C772.069 364.652 742.085 356.414 708.913 356.414ZM711.684 390.056C746.933 390.603 775.233 408.277 775.233 430C775.233 452.068 746.028 469.958 710 469.958L708.316 469.944C673.067 469.397 644.766 451.723 644.766 430C644.766 407.932 673.972 390.043 710 390.043L711.684 390.056ZM710 391.043C692.14 391.043 676.018 395.479 664.395 402.599C652.754 409.729 645.766 419.445 645.766 430C645.766 440.555 652.754 450.271 664.395 457.401C676.018 464.521 692.14 468.958 710 468.958C727.86 468.958 743.981 464.521 755.604 457.401C767.245 450.271 774.233 440.555 774.233 430C774.233 419.445 767.245 409.729 755.604 402.599C743.981 395.479 727.86 391.043 710 391.043Z" fill="#2E2E2E"/>
</g>
<path d="M94 66.5H1326C1338.98 66.5 1349.5 77.0213 1349.5 90V366C1349.5 378.979 1338.98 389.5 1326 389.5H94C81.0213 389.5 70.5 378.979 70.5 366V90C70.5 77.2241 80.6951 66.8295 93.3936 66.5078L94 66.5Z" stroke="#343434"/>
</g>
<defs>
<filter id="filter0_dd_1_1081" x="0" y="0" width="1420" height="464" filterUnits="userSpaceOnUse" color-interpolation-filters="sRGB">
<feFlood flood-opacity="0" result="BackgroundImageFix"/>
<feColorMatrix in="SourceAlpha" type="matrix" values="0 0 0 0 0 0 0 0 0 0 0 0 0 0 0 0 0 0 127 0" result="hardAlpha"/>
<feMorphology radius="6" operator="dilate" in="SourceAlpha" result="effect1_dropShadow_1_1081"/>
<feOffset/>
<feGaussianBlur stdDeviation="2.5"/>
<feComposite in2="hardAlpha" operator="out"/>
<feColorMatrix type="matrix" values="0 0 0 0 0.313726 0 0 0 0 0.313726 0 0 0 0 0.313726 0 0 0 0.08 0"/>
<feBlend mode="normal" in2="BackgroundImageFix" result="effect1_dropShadow_1_1081"/>
<feColorMatrix in="SourceAlpha" type="matrix" values="0 0 0 0 0 0 0 0 0 0 0 0 0 0 0 0 0 0 127 0" result="hardAlpha"/>
<feOffset dy="4"/>
<feGaussianBlur stdDeviation="35"/>
<feComposite in2="hardAlpha" operator="out"/>
<feColorMatrix type="matrix" values="0 0 0 0 0.313726 0 0 0 0 0.313726 0 0 0 0 0.313726 0 0 0 0.1 0"/>
<feBlend mode="normal" in2="effect1_dropShadow_1_1081" result="effect2_dropShadow_1_1081"/>
<feBlend mode="normal" in="SourceGraphic" in2="effect2_dropShadow_1_1081" result="shape"/>
</filter>
<clipPath id="clip0_1_1081">
<path d="M70 90C70 76.7452 80.7452 66 94 66H1326C1339.25 66 1350 76.7452 1350 90V366C1350 379.255 1339.25 390 1326 390H94C80.7452 390 70 379.255 70 366V90Z" fill="white"/>
</clipPath>
</defs>
</svg>
