<svg width="24" height="25" viewBox="0 0 24 25" fill="none" xmlns="http://www.w3.org/2000/svg">
<path fill-rule="evenodd" clip-rule="evenodd" d="M16 3.77393H8C5.23858 3.77393 3 6.01251 3 8.77393V16.7739C3 19.5353 5.23858 21.7739 8 21.7739H16C18.7614 21.7739 21 19.5353 21 16.7739V8.77393C21 6.01251 18.7614 3.77393 16 3.77393ZM19.25 16.7739C19.2445 18.5665 17.7926 20.0184 16 20.0239H8C6.20735 20.0184 4.75549 18.5665 4.75 16.7739V8.77393C4.75549 6.98128 6.20735 5.52942 8 5.52393H16C17.7926 5.52942 19.2445 6.98128 19.25 8.77393V16.7739ZM16.75 9.02393C17.3023 9.02393 17.75 8.57621 17.75 8.02393C17.75 7.47165 17.3023 7.02393 16.75 7.02393C16.1977 7.02393 15.75 7.47165 15.75 8.02393C15.75 8.57621 16.1977 9.02393 16.75 9.02393ZM12 8.27393C9.51472 8.27393 7.5 10.2886 7.5 12.7739C7.5 15.2592 9.51472 17.2739 12 17.2739C14.4853 17.2739 16.5 15.2592 16.5 12.7739C16.5027 11.5796 16.0294 10.4335 15.1849 9.58901C14.3404 8.74452 13.1943 8.27127 12 8.27393ZM9.25 12.7739C9.25 14.2927 10.4812 15.5239 12 15.5239C13.5188 15.5239 14.75 14.2927 14.75 12.7739C14.75 11.2551 13.5188 10.0239 12 10.0239C10.4812 10.0239 9.25 11.2551 9.25 12.7739Z" fill="#ECEDEE"/>
</svg>
