<svg width="24" height="25" viewBox="0 0 24 25" fill="none" xmlns="http://www.w3.org/2000/svg">
<path fill-rule="evenodd" clip-rule="evenodd" d="M4.5 3.77393C3.67157 3.77393 3 4.4455 3 5.27393V20.2739C3 21.1023 3.67157 21.7739 4.5 21.7739H19.5C20.3284 21.7739 21 21.1023 21 20.2739V5.27393C21 4.4455 20.3284 3.77393 19.5 3.77393H4.5ZM8.52076 7.77665C8.52639 8.7329 7.81061 9.32212 6.96123 9.3179C6.16107 9.31368 5.46357 8.67665 5.46779 7.77806C5.47201 6.9329 6.13998 6.25368 7.00764 6.27337C7.88795 6.29306 8.52639 6.93853 8.52076 7.77665ZM12.2797 10.5357H9.75971H9.7583V19.0955H12.4217V18.8958C12.4217 18.5159 12.4214 18.1359 12.4211 17.7558C12.4203 16.742 12.4194 15.7271 12.4246 14.7136C12.426 14.4675 12.4372 14.2116 12.5005 13.9767C12.7381 13.0992 13.5271 12.5325 14.4074 12.6718C14.9727 12.7603 15.3467 13.088 15.5042 13.621C15.6013 13.9542 15.6449 14.3128 15.6491 14.6602C15.6605 15.7078 15.6589 16.7554 15.6573 17.8031C15.6567 18.1729 15.6561 18.5429 15.6561 18.9127V19.0941H18.328V18.8888C18.328 18.4368 18.3278 17.9849 18.3275 17.533C18.327 16.4035 18.3264 15.274 18.3294 14.1441C18.3308 13.6336 18.276 13.1302 18.1508 12.6366C17.9638 11.9025 17.5771 11.295 16.9485 10.8563C16.5027 10.5441 16.0133 10.343 15.4663 10.3205C15.404 10.3179 15.3412 10.3145 15.2781 10.3111C14.9984 10.296 14.7141 10.2807 14.4467 10.3346C13.6817 10.4879 13.0096 10.838 12.5019 11.4553C12.4429 11.5261 12.3852 11.598 12.2991 11.7053L12.2797 11.7296V10.5357ZM5.68164 19.0983H8.33242V10.5413H5.68164V19.0983Z" fill="#ECEDEE"/>
</svg>
