<svg width="24" height="25" viewBox="0 0 24 25" fill="none" xmlns="http://www.w3.org/2000/svg">
<path d="M21.593 7.73426C21.4791 7.31166 21.2565 6.92626 20.9473 6.61643C20.6382 6.30659 20.2533 6.08312 19.831 5.96826C18.265 5.53826 12 5.53126 12 5.53126C12 5.53126 5.73596 5.52426 4.16896 5.93526C3.74689 6.0554 3.36279 6.28203 3.05353 6.59339C2.74427 6.90475 2.52025 7.29038 2.40296 7.71326C1.98996 9.27926 1.98596 12.5273 1.98596 12.5273C1.98596 12.5273 1.98196 15.7913 2.39196 17.3413C2.62196 18.1983 3.29696 18.8753 4.15496 19.1063C5.73696 19.5363 11.985 19.5433 11.985 19.5433C11.985 19.5433 18.25 19.5503 19.816 19.1403C20.2385 19.0256 20.6237 18.8026 20.9336 18.4934C21.2435 18.1842 21.4673 17.7995 21.583 17.3773C21.997 15.8123 22 12.5653 22 12.5653C22 12.5653 22.02 9.30026 21.593 7.73426ZM9.99596 15.5363L10.001 9.53626L15.208 12.5413L9.99596 15.5363Z" fill="#ECEDEE"/>
</svg>
