<svg width="51" height="51" viewBox="0 0 51 51" fill="none" xmlns="http://www.w3.org/2000/svg">
<path d="M25.1914 5.60851C14.3144 5.77452 5.42381 14.6105 5.18748 25.4933C5.10472 29.1537 6.01739 32.768 7.8281 35.9503C7.89923 36.0747 8.0032 36.1771 8.12863 36.2464C8.25407 36.3157 8.39613 36.3491 8.5393 36.3431C8.68246 36.337 8.8212 36.2917 8.94035 36.2121C9.05949 36.1325 9.15444 36.0217 9.21482 35.8917C10.6817 32.7762 11.4401 29.3744 11.4355 25.9308C11.4321 23.8215 11.9047 21.7387 12.8181 19.8375C13.7315 17.9363 15.0621 16.2657 16.7109 14.9503C16.8726 14.8239 17.0577 14.7305 17.2555 14.6756C17.4533 14.6206 17.6599 14.6052 17.8637 14.6301C18.0675 14.6551 18.2643 14.7199 18.443 14.8209C18.6217 14.9219 18.7788 15.0571 18.9053 15.2189C19.0317 15.3806 19.1251 15.5656 19.18 15.7634C19.2349 15.9612 19.2504 16.1679 19.2254 16.3716C19.2005 16.5754 19.1357 16.7723 19.0347 16.951C18.9336 17.1297 18.7984 17.2867 18.6367 17.4132C17.3621 18.4372 16.3341 19.7347 15.6289 21.2098C14.9236 22.6849 14.5592 24.2997 14.5625 25.9347C14.5676 30.6255 13.3239 35.2332 10.959 39.2843C10.8713 39.4331 10.8354 39.6068 10.857 39.7782C10.8786 39.9496 10.9563 40.1091 11.0781 40.2316C11.4687 40.6222 11.8769 41.0128 12.2988 41.3683C12.3853 41.4409 12.4864 41.4939 12.5954 41.5237C12.7043 41.5535 12.8184 41.5593 12.9298 41.5407C13.0411 41.5221 13.1472 41.4797 13.2406 41.4162C13.3339 41.3527 13.4125 41.2697 13.4707 41.173C15.1997 38.3025 16.4276 35.1586 17.1015 31.8761C17.1842 31.47 17.4247 31.1133 17.7703 30.8846C18.1159 30.6558 18.5382 30.5737 18.9443 30.6564C19.3504 30.739 19.7071 30.9795 19.9358 31.3251C20.1646 31.6707 20.2467 32.093 20.164 32.4991C19.4085 36.203 18.0161 39.7478 16.0488 42.9757C15.9933 43.0675 15.9573 43.1697 15.9431 43.276C15.9288 43.3822 15.9366 43.4903 15.9659 43.5935C15.9952 43.6966 16.0454 43.7926 16.1135 43.8755C16.1815 43.9584 16.2659 44.0264 16.3613 44.0753C16.8437 44.3194 17.3379 44.546 17.8398 44.753C18.0131 44.8273 18.2075 44.8364 18.387 44.7786C18.5664 44.7208 18.719 44.6 18.8164 44.4386C22.1719 38.865 23.9425 32.4814 23.9375 25.9757C23.9335 25.5746 24.0808 25.1867 24.3502 24.8895C24.6195 24.5923 24.9911 24.4076 25.3906 24.3722C25.6048 24.3571 25.8198 24.3864 26.0222 24.4582C26.2246 24.53 26.41 24.6427 26.5669 24.7893C26.7237 24.9359 26.8487 25.1133 26.934 25.3103C27.0193 25.5074 27.063 25.72 27.0625 25.9347C27.0702 32.5771 25.375 39.1106 22.1387 44.9112C22.0764 45.0223 22.0422 45.147 22.0391 45.2743C22.0359 45.4016 22.064 45.5278 22.1208 45.6418C22.1776 45.7558 22.2615 45.8542 22.365 45.9284C22.4685 46.0026 22.5886 46.0503 22.7148 46.0675C23.3073 46.1495 23.9069 46.2055 24.5137 46.2355C24.6595 46.2409 24.804 46.2053 24.9307 46.1328C25.0574 46.0603 25.1612 45.9538 25.2304 45.8253C28.4787 39.7493 30.1812 32.967 30.1875 26.0773C30.1972 23.4894 28.1758 21.2941 25.5898 21.2452C24.9677 21.2333 24.3495 21.3453 23.7711 21.5748C23.1928 21.8043 22.6659 22.1467 22.2212 22.5819C21.7765 23.0171 21.4229 23.5365 21.1811 24.1098C20.9392 24.6831 20.8139 25.2988 20.8125 25.921C20.8096 26.3112 20.6627 26.6866 20.3998 26.975C20.137 27.2634 19.7769 27.4445 19.3887 27.4835C19.1721 27.5028 18.9539 27.4767 18.748 27.4069C18.5422 27.337 18.3531 27.225 18.193 27.0779C18.0329 26.9309 17.9052 26.752 17.8182 26.5528C17.7311 26.3536 17.6866 26.1384 17.6875 25.921C17.6874 24.8881 17.8922 23.8655 18.2899 22.9122C18.6877 21.959 19.2705 21.0941 20.0046 20.3675C20.7388 19.641 21.6098 19.0672 22.5671 18.6795C23.5244 18.2917 24.5492 18.0977 25.582 18.1085C29.8789 18.1534 33.332 21.8526 33.3105 26.1476C33.2915 32.5181 31.9257 38.8127 29.3027 44.6183C29.2431 44.752 29.2223 44.8998 29.2426 45.0448C29.2629 45.1898 29.3236 45.3261 29.4176 45.4383C29.5117 45.5505 29.6354 45.634 29.7746 45.6793C29.9138 45.7246 30.063 45.7298 30.2051 45.6944C30.8827 45.5338 31.5515 45.3382 32.209 45.1085C32.3114 45.0722 32.4052 45.0148 32.4842 44.9401C32.5632 44.8655 32.6258 44.7751 32.6679 44.6749C33.5775 42.5195 34.3269 40.2999 34.9101 38.0343C34.9614 37.8355 35.0514 37.6488 35.1748 37.4848C35.2983 37.3208 35.4529 37.1827 35.6297 37.0784C35.8065 36.9741 36.0022 36.9057 36.2054 36.877C36.4087 36.8483 36.6157 36.8599 36.8144 36.9112C37.0132 36.9625 37.1999 37.0525 37.364 37.176C37.528 37.2994 37.6661 37.454 37.7704 37.6308C37.8746 37.8076 37.9431 38.0033 37.9717 38.2065C38.0004 38.4098 37.9888 38.6168 37.9375 38.8155C37.7916 39.3846 37.6354 39.951 37.4687 40.5148C37.4197 40.6771 37.4248 40.851 37.4833 41.0101C37.5417 41.1693 37.6504 41.3052 37.7929 41.3971C37.9354 41.4891 38.1039 41.5322 38.273 41.52C38.4422 41.5077 38.6027 41.4408 38.7305 41.3292C41.8978 38.6094 44.1502 34.9796 45.181 30.934C46.2118 26.8884 45.971 22.6234 44.4913 18.7195C43.0117 14.8156 40.365 11.4625 36.9116 9.11652C33.4582 6.77052 29.3658 5.54561 25.1914 5.60851ZM39.1719 32.3819C39.1244 32.759 38.9411 33.1057 38.6564 33.3574C38.3716 33.609 38.005 33.7483 37.625 33.7491C37.5597 33.7491 37.4945 33.7452 37.4297 33.7374C37.226 33.7121 37.0293 33.6468 36.8509 33.5454C36.6724 33.4441 36.5157 33.3085 36.3896 33.1465C36.2636 32.9846 36.1707 32.7994 36.1162 32.6015C36.0618 32.4036 36.0468 32.1969 36.0722 31.9933C36.3213 29.9846 36.4466 27.9626 36.4472 25.9386C36.4431 23.039 35.2894 20.2595 33.2392 18.2092C31.1889 16.1589 28.4093 15.0052 25.5097 15.0011C25.0527 15.0009 24.5961 15.0289 24.1426 15.0851C23.731 15.1369 23.3157 15.0231 22.9881 14.7687C22.6605 14.5143 22.4473 14.1402 22.3955 13.7286C22.3437 13.3171 22.4575 12.9018 22.7119 12.5742C22.9663 12.2465 23.3404 12.0334 23.7519 11.9816C25.7317 11.7353 27.7413 11.9125 29.6474 12.5015C31.5536 13.0904 33.3128 14.0777 34.8086 15.3979C36.3044 16.7181 37.5026 18.341 38.3239 20.1592C39.1451 21.9774 39.5706 23.9494 39.5723 25.9444C39.5718 28.0965 39.4381 30.2464 39.1719 32.3819Z" fill="#ECEDEE"/>
</svg>
