<svg width="41" height="41" viewBox="0 0 41 41" fill="none" xmlns="http://www.w3.org/2000/svg">
<path d="M33 13.4207H28V9.67065C28 7.68153 27.2098 5.77388 25.8033 4.36735C24.3968 2.96083 22.4891 2.17065 20.5 2.17065C18.5109 2.17065 16.6032 2.96083 15.1967 4.36735C13.7902 5.77388 13 7.68153 13 9.67065V13.4207H8C7.33696 13.4207 6.70107 13.684 6.23223 14.1529C5.76339 14.6217 5.5 15.2576 5.5 15.9207V33.4207C5.5 34.0837 5.76339 34.7196 6.23223 35.1884C6.70107 35.6573 7.33696 35.9207 8 35.9207H33C33.663 35.9207 34.2989 35.6573 34.7678 35.1884C35.2366 34.7196 35.5 34.0837 35.5 33.4207V15.9207C35.5 15.2576 35.2366 14.6217 34.7678 14.1529C34.2989 13.684 33.663 13.4207 33 13.4207ZM15.5 9.67065C15.5 8.34457 16.0268 7.0728 16.9645 6.13512C17.9021 5.19744 19.1739 4.67065 20.5 4.67065C21.8261 4.67065 23.0979 5.19744 24.0355 6.13512C24.9732 7.0728 25.5 8.34457 25.5 9.67065V13.4207H15.5V9.67065ZM29.25 30.9207H11.75C11.4185 30.9207 11.1005 30.789 10.8661 30.5545C10.6317 30.3201 10.5 30.0022 10.5 29.6707C10.5 29.3391 10.6317 29.0212 10.8661 28.7868C11.1005 28.5523 11.4185 28.4207 11.75 28.4207H29.25C29.5815 28.4207 29.8995 28.5523 30.1339 28.7868C30.3683 29.0212 30.5 29.3391 30.5 29.6707C30.5 30.0022 30.3683 30.3201 30.1339 30.5545C29.8995 30.789 29.5815 30.9207 29.25 30.9207ZM29.25 25.9207H11.75C11.4185 25.9207 11.1005 25.789 10.8661 25.5545C10.6317 25.3201 10.5 25.0022 10.5 24.6707C10.5 24.3391 10.6317 24.0212 10.8661 23.7868C11.1005 23.5523 11.4185 23.4207 11.75 23.4207H29.25C29.5815 23.4207 29.8995 23.5523 30.1339 23.7868C30.3683 24.0212 30.5 24.3391 30.5 24.6707C30.5 25.0022 30.3683 25.3201 30.1339 25.5545C29.8995 25.789 29.5815 25.9207 29.25 25.9207ZM29.25 20.9207H11.75C11.4185 20.9207 11.1005 20.789 10.8661 20.5545C10.6317 20.3201 10.5 20.0022 10.5 19.6707C10.5 19.3391 10.6317 19.0212 10.8661 18.7868C11.1005 18.5524 11.4185 18.4207 11.75 18.4207H29.25C29.5815 18.4207 29.8995 18.5524 30.1339 18.7868C30.3683 19.0212 30.5 19.3391 30.5 19.6707C30.5 20.0022 30.3683 20.3201 30.1339 20.5545C29.8995 20.789 29.5815 20.9207 29.25 20.9207Z" fill="#ECEDEE"/>
</svg>
