<svg width="44" height="45" viewBox="0 0 44 45" fill="none" xmlns="http://www.w3.org/2000/svg">
<g clip-path="url(#clip0_1_900)">
<path d="M42.6251 24.2962C42.2605 24.2962 41.9107 24.4411 41.6529 24.6989C41.395 24.9568 41.2501 25.3065 41.2501 25.6712V28.4212H33.569L30.422 25.269L39.0742 16.6151C39.5895 16.0994 39.879 15.4002 39.879 14.6712C39.879 13.9422 39.5895 13.243 39.0742 12.7273L32.5979 6.24934L29.444 3.10231C29.1887 2.84688 28.8855 2.64426 28.5518 2.50602C28.2181 2.36778 27.8605 2.29663 27.4993 2.29663C27.1381 2.29663 26.7804 2.36778 26.4467 2.50602C26.1131 2.64426 25.8099 2.84688 25.5545 3.10231L0.502 28.239C0.262188 28.4796 0.0990343 28.7858 0.0331399 29.119C-0.0327546 29.4523 0.00156538 29.7975 0.131766 30.1113C0.261967 30.425 0.48221 30.6931 0.764685 30.8818C1.04716 31.0704 1.3792 31.1711 1.71888 31.1712H8.48559L14.5562 37.2401C15.0719 37.7555 15.7711 38.0449 16.5001 38.0449C17.2292 38.0449 17.9284 37.7555 18.444 37.2401L28.4729 27.2181L31.6251 30.3651C31.8796 30.6216 32.1824 30.8249 32.5162 30.9633C32.8499 31.1017 33.2078 31.1724 33.569 31.1712H41.2501V33.9212C41.2501 34.2859 41.395 34.6356 41.6529 34.8935C41.9107 35.1514 42.2605 35.2962 42.6251 35.2962C42.9898 35.2962 43.3395 35.1514 43.5974 34.8935C43.8553 34.6356 44.0001 34.2859 44.0001 33.9212V25.6712C44.0001 25.3065 43.8553 24.9568 43.5974 24.6989C43.3395 24.4411 42.9898 24.2962 42.6251 24.2962ZM27.5001 5.04622L29.6812 7.22731L8.48559 28.4212H4.20419L27.5001 5.04622Z" fill="#ECEDEE"/>
</g>
<defs>
<clipPath id="clip0_1_900">
<rect width="44" height="44" fill="white" transform="translate(0 0.920898)"/>
</clipPath>
</defs>
</svg>
