<svg width="51" height="51" viewBox="0 0 51 51" fill="none" xmlns="http://www.w3.org/2000/svg">
<path d="M41.125 8.2334H9.875C9.0462 8.2334 8.25134 8.56264 7.66529 9.14869C7.07924 9.73474 6.75 10.5296 6.75 11.3584V22.2959C6.75 32.5928 11.7344 38.833 15.916 42.2549C20.4199 45.9385 24.9004 47.1904 25.0957 47.2412C25.3643 47.3143 25.6475 47.3143 25.916 47.2412C26.1113 47.1904 30.5859 45.9385 35.0957 42.2549C39.2656 38.833 44.25 32.5928 44.25 22.2959V11.3584C44.25 10.5296 43.9208 9.73474 43.3347 9.14869C42.7487 8.56264 41.9538 8.2334 41.125 8.2334ZM23.9375 19.1709C23.9375 18.7565 24.1021 18.3591 24.3951 18.066C24.6882 17.773 25.0856 17.6084 25.5 17.6084C25.9144 17.6084 26.3118 17.773 26.6049 18.066C26.8979 18.3591 27.0625 18.7565 27.0625 19.1709V26.9834C27.0625 27.3978 26.8979 27.7952 26.6049 28.0883C26.3118 28.3813 25.9144 28.5459 25.5 28.5459C25.0856 28.5459 24.6882 28.3813 24.3951 28.0883C24.1021 27.7952 23.9375 27.3978 23.9375 26.9834V19.1709ZM25.5 36.3584C25.0364 36.3584 24.5833 36.2209 24.1979 35.9634C23.8125 35.7059 23.5121 35.3398 23.3347 34.9116C23.1573 34.4833 23.1108 34.012 23.2013 33.5574C23.2917 33.1028 23.5149 32.6851 23.8427 32.3574C24.1705 32.0296 24.5881 31.8064 25.0428 31.7159C25.4974 31.6255 25.9686 31.6719 26.3969 31.8493C26.8252 32.0267 27.1912 32.3271 27.4488 32.7125C27.7063 33.098 27.8438 33.5511 27.8438 34.0146C27.8438 34.6362 27.5968 35.2324 27.1573 35.6719C26.7177 36.1115 26.1216 36.3584 25.5 36.3584Z" fill="#ECEDEE"/>
</svg>
