<svg width="41" height="41" viewBox="0 0 41 41" fill="none" xmlns="http://www.w3.org/2000/svg">
<path d="M33 7.1709H8C7.33696 7.1709 6.70107 7.43429 6.23223 7.90313C5.76339 8.37197 5.5 9.00786 5.5 9.6709V18.4209C5.5 26.6584 9.4875 31.6506 12.8328 34.3881C16.4359 37.335 20.0203 38.335 20.1766 38.3771C20.3914 38.4356 20.618 38.4356 20.8328 38.3771C20.9891 38.335 24.5688 37.335 28.1766 34.3881C31.5125 31.6506 35.5 26.6584 35.5 18.4209V9.6709C35.5 9.00786 35.2366 8.37197 34.7678 7.90313C34.2989 7.43429 33.663 7.1709 33 7.1709ZM27.6375 18.0553L18.8875 26.8053C18.7714 26.9215 18.6335 27.0137 18.4818 27.0766C18.3301 27.1395 18.1674 27.1719 18.0031 27.1719C17.8389 27.1719 17.6762 27.1395 17.5244 27.0766C17.3727 27.0137 17.2348 26.9215 17.1188 26.8053L13.3688 23.0553C13.1342 22.8207 13.0024 22.5026 13.0024 22.1709C13.0024 21.8392 13.1342 21.5211 13.3688 21.2865C13.6033 21.052 13.9214 20.9202 14.2531 20.9202C14.5848 20.9202 14.9029 21.052 15.1375 21.2865L18 24.1537L25.8656 16.2865C25.9818 16.1704 26.1196 16.0783 26.2714 16.0154C26.4231 15.9526 26.5858 15.9202 26.75 15.9202C26.9142 15.9202 27.0769 15.9526 27.2286 16.0154C27.3804 16.0783 27.5182 16.1704 27.6344 16.2865C27.7505 16.4027 27.8426 16.5405 27.9055 16.6923C27.9683 16.844 28.0007 17.0067 28.0007 17.1709C28.0007 17.3351 27.9683 17.4978 27.9055 17.6495C27.8426 17.8013 27.7505 17.9391 27.6344 18.0553H27.6375Z" fill="#ECEDEE"/>
</svg>
