<svg width="41" height="41" viewBox="0 0 41 41" fill="none" xmlns="http://www.w3.org/2000/svg">
<path d="M36.7501 9.67065V14.6707C36.7501 14.8364 36.6842 14.9954 36.567 15.1126C36.4498 15.2298 36.2908 15.2957 36.1251 15.2957H21.7501V9.04565C21.7501 8.87989 21.8159 8.72092 21.9331 8.60371C22.0503 8.4865 22.2093 8.42065 22.3751 8.42065H35.5001C35.8316 8.42065 36.1495 8.55235 36.3839 8.78677C36.6184 9.02119 36.7501 9.33913 36.7501 9.67065ZM36.1251 17.7957H29.2501V24.6707H36.1251C36.2908 24.6707 36.4498 24.6048 36.567 24.4876C36.6842 24.3704 36.7501 24.2114 36.7501 24.0457V18.4207C36.7501 18.2549 36.6842 18.0959 36.567 17.9787C36.4498 17.8615 36.2908 17.7957 36.1251 17.7957ZM14.2501 24.6707H26.7501V17.7957H14.2501V24.6707ZM4.87506 24.6707H11.7501V17.7957H4.87506C4.7093 17.7957 4.55033 17.8615 4.43312 17.9787C4.31591 18.0959 4.25006 18.2549 4.25006 18.4207V24.0457C4.25006 24.2114 4.31591 24.3704 4.43312 24.4876C4.55033 24.6048 4.7093 24.6707 4.87506 24.6707ZM36.1251 27.1707H21.7501V32.7957C21.7501 32.9614 21.8159 33.1204 21.9331 33.2376C22.0503 33.3548 22.2093 33.4207 22.3751 33.4207H35.5001C35.8316 33.4207 36.1495 33.289 36.3839 33.0545C36.6184 32.8201 36.7501 32.5022 36.7501 32.1707V27.7957C36.7501 27.6299 36.6842 27.4709 36.567 27.3537C36.4498 27.2365 36.2908 27.1707 36.1251 27.1707ZM4.87506 15.2957H19.2501V9.04565C19.2501 8.87989 19.1842 8.72092 19.067 8.60371C18.9498 8.4865 18.7908 8.42065 18.6251 8.42065H5.50006C5.16854 8.42065 4.8506 8.55235 4.61618 8.78677C4.38176 9.02119 4.25006 9.33913 4.25006 9.67065V14.6707C4.25006 14.8364 4.31591 14.9954 4.43312 15.1126C4.55033 15.2298 4.7093 15.2957 4.87506 15.2957ZM4.25006 27.7957V32.1707C4.25006 32.5022 4.38176 32.8201 4.61618 33.0545C4.8506 33.289 5.16854 33.4207 5.50006 33.4207H18.6251C18.7908 33.4207 18.9498 33.3548 19.067 33.2376C19.1842 33.1204 19.2501 32.9614 19.2501 32.7957V27.1707H4.87506C4.7093 27.1707 4.55033 27.2365 4.43312 27.3537C4.31591 27.4709 4.25006 27.6299 4.25006 27.7957Z" fill="#ECEDEE"/>
</svg>
