<svg width="318" height="200" viewBox="0 0 318 200" fill="none" xmlns="http://www.w3.org/2000/svg">
<foreignObject x="-86.5" y="-86.5" width="490.333" height="373"><div xmlns="http://www.w3.org/1999/xhtml" style="backdrop-filter:blur(43.25px);clip-path:url(#bgblur_1_1_840_clip_path);height:100%;width:100%"></div></foreignObject><g data-figma-bg-blur-radius="86.5">
<g clip-path="url(#clip0_1_840)">
<path d="M0 24C0 10.7452 10.7452 0 24 0H293.333C306.588 0 317.333 10.7452 317.333 24V176C317.333 189.255 306.588 200 293.333 200H24C10.7452 200 0 189.255 0 176V24Z" fill="#1C1C1C"/>
<path d="M161.411 89.0107C274.898 89.8913 366.452 146.515 366.452 216.237C366.452 286.508 273.45 343.474 158.727 343.475L156.041 343.464C42.5545 342.583 -49 285.959 -49 216.237C-49 145.966 44.0026 89 158.727 89L161.411 89.0107ZM158.727 89.4062C101.427 89.4062 49.571 103.633 12.0537 126.613C-25.4704 149.598 -48.5938 181.296 -48.5938 216.237C-48.5938 251.178 -25.4704 282.877 12.0537 305.861C49.571 328.842 101.427 343.068 158.727 343.068C216.026 343.068 267.881 328.842 305.398 305.861C342.923 282.877 366.046 251.178 366.046 216.237C366.046 181.296 342.923 149.598 305.398 126.613C267.881 103.633 216.026 89.4063 158.727 89.4062ZM160.84 116.08C250.18 116.773 322.255 161.351 322.255 216.238L322.242 217.532C321.11 272.255 248.335 316.403 158.727 316.403L156.612 316.396C67.9756 315.708 -3.66607 271.824 -4.78906 217.532L-4.80273 216.238C-4.80273 160.918 68.412 116.072 158.727 116.072L160.84 116.08ZM158.727 116.479C113.632 116.479 72.8248 127.676 43.3057 145.757C13.7799 163.842 -4.39648 188.773 -4.39648 216.238C-4.39606 243.703 13.7802 268.634 43.3057 286.719C72.8248 304.8 113.632 315.997 158.727 315.997C203.821 315.997 244.627 304.8 274.146 286.719C303.672 268.634 321.848 243.703 321.849 216.238C321.849 188.773 303.672 163.842 274.146 145.757C244.627 127.676 203.821 116.479 158.727 116.479ZM160.268 143.149C225.462 143.655 278.058 176.184 278.058 216.237L278.048 217.182C277.222 257.115 224.116 289.331 158.726 289.331L157.184 289.325C91.989 288.82 39.3936 256.291 39.3936 216.237C39.3936 175.869 92.8203 143.144 158.726 143.144L160.268 143.149ZM158.726 143.55C125.836 143.55 96.0787 151.716 74.5576 164.898C53.0297 178.085 39.7998 196.248 39.7998 216.237C39.7998 236.227 53.0297 254.39 74.5576 267.576C96.0787 280.758 125.836 288.925 158.726 288.925C191.616 288.925 221.372 280.758 242.894 267.576C264.422 254.39 277.651 236.227 277.651 216.237C277.651 196.248 264.422 178.085 242.894 164.898C221.372 151.716 191.616 143.55 158.726 143.55ZM159.869 162.099C208.161 162.473 247.121 186.568 247.121 216.237L247.114 216.938C246.502 246.517 207.164 270.381 158.728 270.381L157.585 270.376C109.673 270.004 70.9471 246.285 70.3398 216.938L70.333 216.237C70.333 186.335 109.909 162.094 158.728 162.094L159.869 162.099ZM158.728 162.5C134.381 162.5 112.358 168.546 96.4355 178.299C80.5063 188.056 70.7393 201.481 70.7393 216.237C70.7393 230.994 80.5063 244.419 96.4355 254.176C112.358 263.929 134.381 269.975 158.728 269.975C183.074 269.974 205.096 263.928 221.019 254.176C236.948 244.419 246.715 230.994 246.715 216.237C246.715 201.481 236.948 188.056 221.019 178.299C205.096 168.546 183.074 162.5 158.728 162.5ZM158.284 185.917C185.379 185.917 207.343 199.371 207.343 215.967L207.339 216.355C206.999 232.772 185.167 246.017 158.284 246.017L157.019 246.007C130.72 245.599 109.564 232.514 109.229 216.355L109.226 215.967C109.226 199.371 131.19 185.917 158.284 185.917ZM158.284 186.323C144.8 186.323 132.611 189.673 123.807 195.065C114.996 200.462 109.632 207.864 109.632 215.967C109.632 224.07 114.996 231.471 123.807 236.868C132.611 242.261 144.8 245.609 158.284 245.609C171.769 245.609 183.958 242.261 192.762 236.868C201.573 231.471 206.936 224.07 206.937 215.967C206.937 207.864 201.573 200.462 192.762 195.065C183.958 189.673 171.769 186.323 158.284 186.323ZM159.411 199.999C173.74 200.222 185.244 207.407 185.244 216.237L185.235 216.656C184.872 225.433 173.143 232.48 158.727 232.48L158.042 232.475C143.94 232.256 132.574 225.294 132.217 216.656L132.208 216.237C132.208 207.267 144.081 199.994 158.727 199.994L159.411 199.999ZM158.727 200.4C151.466 200.4 144.913 202.204 140.188 205.099C135.456 207.997 132.614 211.947 132.614 216.237C132.614 220.528 135.456 224.478 140.188 227.376C144.913 230.27 151.466 232.074 158.727 232.074C165.986 232.074 172.54 230.27 177.265 227.376C181.996 224.478 184.838 220.528 184.838 216.237C184.838 211.947 181.996 207.997 177.265 205.099C172.54 202.205 165.987 200.4 158.727 200.4Z" fill="#343434"/>
<g filter="url(#filter1_f_1_840)">
<ellipse cx="159.5" cy="253.39" rx="110.5" ry="67.3901" fill="#505050"/>
</g>
</g>
<path d="M24 0.5H293.333C306.312 0.5 316.833 11.0213 316.833 24V176C316.833 188.979 306.312 199.5 293.333 199.5H24C11.0213 199.5 0.5 188.979 0.5 176V24C0.5 11.0213 11.0213 0.5 24 0.5Z" stroke="url(#paint0_linear_1_840)"/>
</g>
<defs>
<clipPath id="bgblur_1_1_840_clip_path" transform="translate(86.5 86.5)"><path d="M0 24C0 10.7452 10.7452 0 24 0H293.333C306.588 0 317.333 10.7452 317.333 24V176C317.333 189.255 306.588 200 293.333 200H24C10.7452 200 0 189.255 0 176V24Z"/>
</clipPath><filter id="filter1_f_1_840" x="-99.6547" y="37.3453" width="518.309" height="432.09" filterUnits="userSpaceOnUse" color-interpolation-filters="sRGB">
<feFlood flood-opacity="0" result="BackgroundImageFix"/>
<feBlend mode="normal" in="SourceGraphic" in2="BackgroundImageFix" result="shape"/>
<feGaussianBlur stdDeviation="74.3274" result="effect1_foregroundBlur_1_840"/>
</filter>
<linearGradient id="paint0_linear_1_840" x1="158.667" y1="0" x2="158.244" y2="90.4993" gradientUnits="userSpaceOnUse">
<stop stop-color="#505050"/>
<stop offset="1" stop-color="#505050" stop-opacity="0"/>
</linearGradient>
<clipPath id="clip0_1_840">
<path d="M0 24C0 10.7452 10.7452 0 24 0H293.333C306.588 0 317.333 10.7452 317.333 24V176C317.333 189.255 306.588 200 293.333 200H24C10.7452 200 0 189.255 0 176V24Z" fill="white"/>
</clipPath>
</defs>
</svg>
